#!OML:ASF H:\Dans Jumps\Project 1\Capture day 1\Session 1\subject.ASF
:FULLY-SPECIFIED
:DEGREES
1467
root 0.138418 12.7426 0.310276 19.6538 0.578957 0.352772
lowerback 28.5042 -0.613265 2.00535
upperback 11.7201 -0.150795 1.92798
thorax -2.58498 -0.0671268 1.00585
lowerneck -19.4623 0.288239 -1.29453
upperneck 3.01986 0.967591 -3.20517
head 3.99335 0.256924 -0.710772
rclavicle -7.15625e-015 1.59028e-014
rhumerus 1.99755 5.03653 -74.5761
rradius 50.7053
rwrist 15.9676
rhand -25.1764 -25.8329
rfingers 7.12502
rthumb 1.34122 -55.8084
lclavicle -7.15625e-015 1.59028e-014
lhumerus 2.41503 -13.1164 79.2552
lradius 40.2198
lwrist 28.0093
lhand -25.1075 -1.84545
lfingers 7.12502
lthumb 1.40778 28.1296
rfemur -84.3368 -14.076 23.4684
rtibia 99.1595
rfoot -31.2113 -9.77214
rtoes -8.09299
lfemur -82.0667 8.70559 -24.4313
ltibia 98.1379
lfoot -28.5235 17.8374
ltoes -7.79491
1468
root 0.134463 12.6011 0.291876 19.6876 0.462561 0.376831
lowerback 28.8879 -0.547252 1.86082
upperback 11.7807 -0.0951816 1.92138
thorax -2.693 -0.0452733 1.06835
lowerneck -19.4209 0.27041 -1.42389
upperneck 2.67584 0.954863 -3.1153
head 3.87819 0.260764 -0.663035
rclavicle -1.19271e-015 -3.18055e-014
rhumerus 2.17874 5.09238 -74.3231
rradius 50.7159
rwrist 16.0221
rhand -25.198 -25.8161
rfingers 7.12502
rthumb 1.32033 -55.7918
lclavicle -1.19271e-015 -3.18055e-014
lhumerus 2.74714 -13.0902 78.9779
lradius 40.0979
lwrist 28.073
lhand -25.2348 -1.86631
lfingers 7.12502
lthumb 1.28484 28.1096
rfemur -85.456 -14.1671 23.6051
rtibia 100.476
rfoot -31.5175 -9.72519
rtoes -8.01987
lfemur -83.1271 8.96978 -24.6394
ltibia 99.4914
lfoot -28.9029 17.8729
ltoes -7.75575
1469
root 0.133047 12.4618 0.277032 19.7133 0.382693 0.293284
lowerback 29.247 -0.506831 1.83852
upperback 11.8407 -0.0410423 1.93863
thorax -2.78921 -0.021332 1.08685
lowerneck -19.4016 0.250102 -1.45573
upperneck 2.32955 0.921207 -3.08646
head 3.76659 0.251554 -0.651728
rclavicle -2.78299e-015 6.75868e-015
rhumerus 2.29652 5.21937 -74.0727
rradius 50.8214
rwrist 15.9849
rhand -25.0183 -26.1457
rfingers 7.12502
rthumb 1.49392 -56.1202
lclavicle -2.78299e-015 6.75868e-015
lhumerus 2.99326 -13.0225 78.7359
lradius 40.014
lwrist 28.0072
lhand -25.8859 -2.6396
lfingers 7.12502
lthumb 0.655905 27.3391
rfemur -86.5027 -14.227 23.827
rtibia 101.764
rfoot -31.8478 -9.70652
rtoes -7.88165
lfemur -84.1562 9.22684 -24.7227
ltibia 100.831
lfoot -29.3059 17.8943
ltoes -7.70985
1470
root 0.12908 12.3225 0.258393 19.7788 0.330309 0.140448
lowerback 29.6601 -0.470231 1.88518
upperback 11.8546 0.0290525 1.96009
thorax -2.96089 0.0117419 1.06572
lowerneck -19.3685 0.211557 -1.52783
upperneck 1.99862 0.869686 -3.01553
head 3.65721 0.23535 -0.622409
rclavicle 3.57812e-015 -1.90833e-014
rhumerus 2.37311 5.1805 -73.901
rradius 50.7776
rwrist 16.2457
rhand -25.1035 -25.8669
rfingers 7.12502
rthumb 1.41161 -55.8419
lclavicle 3.57812e-015 -1.90833e-014
lhumerus 3.23973 -13.0237 78.4539
lradius 39.871
lwrist 27.9104
lhand -25.5328 -1.81144
lfingers 7.12502
lthumb 0.996958 28.166
rfemur -87.6211 -14.2495 24.1807
rtibia 103.006
rfoot -32.0836 -9.75332
rtoes -7.90535
lfemur -85.2864 9.52151 -24.732
ltibia 102.14
lfoot -29.5982 17.8817
ltoes -7.79727
1471
root 0.130313 12.193 0.246611 19.6977 0.305562 0.236306
lowerback 30.088 -0.467355 1.81586
upperback 11.9503 0.0221375 1.90558
thorax -3.0457 0.00764925 1.05079
lowerneck -19.4308 0.201291 -1.51171
upperneck 1.71072 0.843156 -2.99309
head 3.57651 0.228083 -0.620191
rclavicle -1.15295e-014 -2.78299e-015
rhumerus 2.49079 5.14237 -73.731
rradius 50.677
rwrist 16.5024
rhand -25.1987 -25.7213
rfingers 7.12502
rthumb 1.31962 -55.6969
lclavicle -1.15295e-014 -2.78299e-015
lhumerus 3.52071 -13.0523 78.1358
lradius 39.7179
lwrist 27.7456
lhand -25.7074 -2.01938
lfingers 7.12502
lthumb 0.828362 27.9588
rfemur -88.502 -14.5676 24.2399
rtibia 104.236
rfoot -32.4553 -9.6152
rtoes -7.92527
lfemur -86.0565 9.59436 -24.9447
ltibia 103.365
lfoot -29.978 18.0187
ltoes -7.81798
